Land_normalized_pl02_filtered_grf
version=1
nRows=15
nColumns=37
inDegrees=yes
endheader
time		1_ground_force_vx		1_ground_force_vy		1_ground_force_vz		1_ground_force_px		1_ground_force_py		1_ground_force_pz		1_ground_torque_x		1_ground_torque_y		1_ground_torque_z		2_ground_force_vx		2_ground_force_vy		2_ground_force_vz		2_ground_force_px		2_ground_force_py		2_ground_force_pz		2_ground_torque_x		2_ground_torque_y		2_ground_torque_z		3_ground_force_vx		3_ground_force_vy		3_ground_force_vz		3_ground_force_px		3_ground_force_py		3_ground_force_pz		3_ground_torque_x		3_ground_torque_y		3_ground_torque_z		4_ground_force_vx		4_ground_force_vy		4_ground_force_vz		4_ground_force_px		4_ground_force_py		4_ground_force_pz		4_ground_torque_x		4_ground_torque_y		4_ground_torque_z		
0.865333		-6.199120		876.851092		189.303438		0.127394		0.000000		0.274608		-0.099601		14.093001		3.042565		69.341715		959.082834		128.489252		-0.121421		0.000000		0.280179		-0.173723		-2.402823		-0.321907		21.863355		0.984957		0.744579		0.375079		1.311015		1.913367		-0.097126		-0.004375		-0.003308		-19.002991		-0.436341		1.255238		-0.265809		1.310133		1.924026		0.008303		0.000190		-0.000548		
0.868111		-12.824879		879.166263		184.726524		0.128686		0.000000		0.275307		-0.196100		13.445172		2.825064		67.613864		963.382147		127.672609		-0.121174		0.000000		0.280234		-0.181085		-2.580182		-0.341939		21.959327		1.008679		0.671606		0.375093		1.311013		1.913350		-0.096575		-0.004436		-0.002953		-19.001742		-0.367519		1.286973		-0.265805		1.310120		1.924021		0.010486		0.000203		-0.000710		
0.870889		-19.914935		879.745068		179.644786		0.130035		0.000000		0.276030		-0.287501		12.701953		2.593777		65.630426		964.404135		127.742776		-0.120894		0.000000		0.280182		-0.188882		-2.775553		-0.367644		22.040757		0.999588		0.625396		0.375108		1.311014		1.913329		-0.096349		-0.004370		-0.002734		-19.021536		-0.277284		1.363467		-0.265796		1.310107		1.924019		0.012075		0.000176		-0.000866		
0.873667		-27.162931		879.258528		174.263521		0.131378		0.000000		0.276704		-0.367913		11.910766		2.360673		63.606159		962.278332		128.740906		-0.120612		0.000000		0.280023		-0.192232		-2.908233		-0.389087		22.078260		0.963947		0.616308		0.375126		1.311018		1.913309		-0.096460		-0.004211		-0.002692		-19.060332		-0.174033		1.465013		-0.265782		1.310098		1.924021		0.012959		0.000118		-0.000996		
0.876444		-34.242808		878.581079		168.850384		0.132657		0.000000		0.277286		-0.433881		11.132743		2.139564		61.728452		957.405802		130.571190		-0.120354		0.000000		0.279774		-0.189462		-2.938544		-0.400759		22.054786		0.917005		0.643375		0.375147		1.311025		1.913294		-0.096983		-0.004032		-0.002829		-19.111901		-0.071408		1.562349		-0.265762		1.310091		1.924029		0.013252		0.000049		-0.001084		
0.879222		-40.868227		878.705166		163.695165		0.133837		0.000000		0.277786		-0.484364		10.415128		1.940280		60.087632		950.402248		132.984120		-0.120137		0.000000		0.279471		-0.182395		-2.884922		-0.403668		21.970508		0.877696		0.694867		0.375169		1.311032		1.913288		-0.098055		-0.003917		-0.003101		-19.168546		0.010033		1.626476		-0.265736		1.310088		1.924039		0.013083		-0.000007		-0.001110		
0.882000		-46.853899		880.566883		159.046022		0.134911		0.000000		0.278265		-0.520911		9.789933		1.768236		58.709971		942.076124		135.661550		-0.119970		0.000000		0.279162		-0.174752		-2.804120		-0.403801		21.843199		0.860307		0.752676		0.375193		1.311040		1.913293		-0.099763		-0.003929		-0.003438		-19.222666		0.046301		1.641609		-0.265705		1.310090		1.924050		0.012444		-0.000030		-0.001063		
0.884778		-52.097968		884.928877		155.103440		0.135887		0.000000		0.278800		-0.546975		9.291186		1.628507		57.676305		933.253065		138.387163		-0.119864		0.000000		0.278887		-0.169642		-2.744957		-0.407035		21.700491		0.866779		0.799054		0.375217		1.311049		1.913307		-0.102059		-0.004076		-0.003758		-19.268344		0.016284		1.611673		-0.265670		1.310098		1.924060		0.011199		-0.000009		-0.000937		
0.887556		-56.592311		892.079808		151.987956		0.136772		0.000000		0.279426		-0.567480		8.945414		1.524079		57.182902		924.687428		141.141051		-0.119844		0.000000		0.278662		-0.167683		-2.711552		-0.413882		21.572227		0.883345		0.822174		0.375240		1.311058		1.913329		-0.104650		-0.004285		-0.003988		-19.303439		-0.085202		1.561396		-0.265634		1.310109		1.924067		0.009338		0.000041		-0.000755		
0.890333		-60.343861		901.861231		149.791453		0.137541		0.000000		0.280108		-0.585852		8.755838		1.454277		57.541709		916.932777		144.076279		-0.119946		0.000000		0.278479		-0.166934		-2.660118		-0.417979		21.481008		0.888967		0.817700		0.375261		1.311070		1.913353		-0.107032		-0.004429		-0.004075		-19.328883		-0.245442		1.523472		-0.265603		1.310123		1.924069		0.007131		0.000091		-0.000562		
0.893111		-63.366054		913.576817		148.539054		0.138152		0.000000		0.280738		-0.602828		8.691255		1.413119		59.028562		910.261444		147.371290		-0.120199		0.000000		0.278314		-0.164029		-2.529477		-0.409517		21.437143		0.868149		0.789129		0.375280		1.311084		1.913376		-0.108612		-0.004398		-0.003998		-19.345687		-0.434118		1.523515		-0.265574		1.310135		1.924066		0.005101		0.000114		-0.000402		
0.895889		-65.623298		926.215391		148.211942		0.138557		0.000000		0.281198		-0.617458		8.714884		1.394547		61.747351		904.676581		151.069709		-0.120607		0.000000		0.278144		-0.155927		-2.284623		-0.381495		21.441260		0.821595		0.744455		0.375297		1.311098		1.913392		-0.108942		-0.004175		-0.003783		-19.350545		-0.615226		1.567884		-0.265551		1.310145		1.924056		0.003729		0.000119		-0.000302		
0.898667		-67.027361		938.638148		148.751421		0.138727		0.000000		0.281414		-0.629119		8.810068		1.396183		65.517891		899.956620		154.997927		-0.121138		0.000000		0.277959		-0.141595		-1.945130		-0.334993		21.488005		0.768765		0.694518		0.375316		1.311113		1.913400		-0.107946		-0.003862		-0.003489		-19.334218		-0.758290		1.640415		-0.265531		1.310149		1.924042		0.003189		0.000125		-0.000271		
0.901444		-67.457613		949.811900		150.099011		0.138667		0.000000		0.281386		-0.637848		8.980980		1.419267		69.902325		895.755088		158.831239		-0.121724		0.000000		0.277759		-0.123155		-1.578239		-0.279841		21.568754		0.739043		0.650302		0.375337		1.311126		1.913398		-0.105949		-0.003630		-0.003195		-19.283835		-0.846970		1.709986		-0.265511		1.310148		1.924023		0.003268		0.000144		-0.000289		
0.904222		-66.793469		958.916450		152.248424		0.138408		0.000000		0.281170		-0.643054		9.232009		1.465781		74.339644		891.701960		162.254343		-0.122284		0.000000		0.277543		-0.105379		-1.264143		-0.230014		21.673056		0.756978		0.619191		0.375359		1.311135		1.913386		-0.103514		-0.003615		-0.002957		-19.187856		-0.879866		1.743167		-0.265492		1.310143		1.924000		0.003523		0.000162		-0.000320		
